<?xml version="1.0" encoding="UTF-8" standalone="no"?>
<svg
   class="ionicon"
   viewBox="0 0 512 512"
   version="1.1"
   id="svg1"
   sodipodi:docname="update-sites-manager.svg"
   inkscape:version="1.4 (e7c3feb1, 2024-10-09)"
   xmlns:inkscape="http://www.inkscape.org/namespaces/inkscape"
   xmlns:sodipodi="http://sodipodi.sourceforge.net/DTD/sodipodi-0.dtd"
   xmlns="http://www.w3.org/2000/svg"
   xmlns:svg="http://www.w3.org/2000/svg">
  <defs
     id="defs1" />
  <sodipodi:namedview
     id="namedview1"
     pagecolor="#ffffff"
     bordercolor="#666666"
     borderopacity="1.0"
     inkscape:showpageshadow="2"
     inkscape:pageopacity="0.0"
     inkscape:pagecheckerboard="0"
     inkscape:deskcolor="#d1d1d1"
     inkscape:zoom="1.9707031"
     inkscape:cx="255.74628"
     inkscape:cy="256"
     inkscape:window-width="1200"
     inkscape:window-height="1186"
     inkscape:window-x="1282"
     inkscape:window-y="128"
     inkscape:window-maximized="0"
     inkscape:current-layer="svg1" />
  <path
     fill="none"
     stroke="currentColor"
     stroke-linecap="round"
     stroke-linejoin="round"
     stroke-width="32"
     d="M413.66 246.1H386a2 2 0 01-2-2v-77.24A38.86 38.86 0 00345.14 128H267.9a2 2 0 01-2-2V98.34c0-27.14-21.5-49.86-48.64-50.33a49.53 49.53 0 00-50.4 49.51V126a2 2 0 01-2 2H87.62A39.74 39.74 0 0048 167.62V238a2 2 0 002 2h26.91c29.37 0 53.68 25.48 54.09 54.85.42 29.87-23.51 57.15-53.29 57.15H50a2 2 0 00-2 2v70.38A39.74 39.74 0 0087.62 464H158a2 2 0 002-2v-20.93c0-30.28 24.75-56.35 55-57.06 30.1-.7 57 20.31 57 50.28V462a2 2 0 002 2h71.14A38.86 38.86 0 00384 425.14v-78a2 2 0 012-2h28.48c27.63 0 49.52-22.67 49.52-50.4s-23.2-48.64-50.34-48.64z"
     id="path1" />
  <path
     d="m 255.76311,174.71789 c -48.36931,0 -87.58437,39.55585 -87.58437,88.34552 0,48.78966 39.21506,88.34552 87.58437,88.34552 48.36931,0 87.58437,-39.55586 87.58437,-88.34552 0,-48.78967 -39.21506,-88.34552 -87.58437,-88.34552 z"
     fill="none"
     stroke="currentColor"
     stroke-miterlimit="10"
     stroke-width="13.5329"
     id="path1-8" />
  <path
     d="m 255.76311,174.71789 c -24.45204,0 -47.44294,39.55585 -47.44294,88.34552 0,48.78966 22.9909,88.34552 47.44294,88.34552 24.45204,0 47.44294,-39.55586 47.44294,-88.34552 0,-48.78967 -22.9909,-88.34552 -47.44294,-88.34552 z"
     fill="none"
     stroke="currentColor"
     stroke-miterlimit="10"
     stroke-width="13.5329"
     id="path2" />
  <path
     d="m 197.37212,204.16498 c 16.10205,11.53164 36.37278,18.40815 58.39099,18.40815 22.0182,0 42.28893,-6.87651 58.39098,-18.40815 m 0,117.79686 c -16.10205,-11.53164 -36.37278,-18.40815 -58.39098,-18.40815 -22.01821,0 -42.28894,6.87651 -58.39099,18.40815"
     fill="none"
     stroke="currentColor"
     stroke-linecap="round"
     stroke-linejoin="round"
     stroke-width="13.5329"
     id="path3" />
  <path
     fill="none"
     stroke="currentColor"
     stroke-miterlimit="10"
     stroke-width="13.5329"
     d="m 255.76311,174.71789 v 176.69104 m 87.58437,-88.34552 H 168.17874"
     id="path4" />
</svg>
